<mxfile host="app.diagrams.net" modified="2024-03-13T17:36:34.034Z" agent="Mozilla/5.0 (Windows NT 10.0; Win64; x64; rv:123.0) Gecko/20100101 Firefox/123.0" etag="OJwkakVzuLu8MaWRXeFU" version="24.0.5" type="github">
  <diagram name="Page-1" id="YedJf_uwcZubBDAMZVYi">
    <mxGraphModel dx="1066" dy="-581" grid="1" gridSize="10" guides="1" tooltips="1" connect="1" arrows="1" fold="1" page="1" pageScale="1" pageWidth="850" pageHeight="1100" math="0" shadow="0">
      <root>
        <mxCell id="0" />
        <mxCell id="1" parent="0" />
        <mxCell id="aS9QhIr4S9a6gYHnRsQU-71" value="systeme" style="shape=umlActor;verticalLabelPosition=bottom;verticalAlign=top;html=1;" parent="1" vertex="1">
          <mxGeometry x="820" y="1490" width="30" height="60" as="geometry" />
        </mxCell>
        <mxCell id="aS9QhIr4S9a6gYHnRsQU-136" value="" style="whiteSpace=wrap;html=1;aspect=fixed;" parent="1" vertex="1">
          <mxGeometry x="140" y="1210" width="630" height="630" as="geometry" />
        </mxCell>
        <mxCell id="aS9QhIr4S9a6gYHnRsQU-137" value="&lt;b&gt;&lt;font style=&quot;font-size: 14px;&quot;&gt;gestion des authentifications et des autorisations&lt;br&gt;&lt;/font&gt;&lt;/b&gt;" style="text;html=1;align=center;verticalAlign=middle;whiteSpace=wrap;rounded=0;" parent="1" vertex="1">
          <mxGeometry x="340" y="1210" width="250" height="40" as="geometry" />
        </mxCell>
        <mxCell id="aS9QhIr4S9a6gYHnRsQU-138" value="&lt;div&gt;admin &lt;br&gt;&lt;/div&gt;&lt;div&gt;principale&lt;br&gt;&lt;/div&gt;" style="shape=umlActor;verticalLabelPosition=bottom;verticalAlign=top;html=1;outlineConnect=0;" parent="1" vertex="1">
          <mxGeometry x="100" y="1430" width="30" height="60" as="geometry" />
        </mxCell>
        <mxCell id="aS9QhIr4S9a6gYHnRsQU-143" value="&lt;br&gt;&lt;br&gt;&lt;br&gt;&lt;br&gt;&lt;p style=&quot;margin-top:0cm;margin-right:0cm;margin-bottom:0cm;&lt;br/&gt;margin-left:36.0pt;text-align:justify;text-indent:-18.0pt;mso-list:l0 level1 lfo1;&lt;br/&gt;tab-stops:0cm&quot; class=&quot;MsoNormal&quot;&gt;&amp;nbsp;&amp;nbsp;&amp;nbsp;&amp;nbsp;&amp;nbsp;&amp;nbsp;&amp;nbsp;&amp;nbsp; administrer les utilisateurs&lt;br&gt;&lt;/p&gt;&lt;br&gt;&lt;br&gt;&lt;br&gt;&lt;br&gt;&lt;div&gt;&lt;br&gt;&lt;/div&gt;" style="ellipse;whiteSpace=wrap;html=1;" parent="1" vertex="1">
          <mxGeometry x="300" y="1320" width="170" height="40" as="geometry" />
        </mxCell>
        <mxCell id="aS9QhIr4S9a6gYHnRsQU-144" value="administrer les roles et les privileges" style="ellipse;whiteSpace=wrap;html=1;" parent="1" vertex="1">
          <mxGeometry x="295" y="1390" width="170" height="50" as="geometry" />
        </mxCell>
        <mxCell id="aS9QhIr4S9a6gYHnRsQU-145" value="affecter un role a un utilisateur" style="ellipse;whiteSpace=wrap;html=1;" parent="1" vertex="1">
          <mxGeometry x="295" y="1500" width="170" height="40" as="geometry" />
        </mxCell>
        <mxCell id="aS9QhIr4S9a6gYHnRsQU-146" value="&lt;font style=&quot;font-size: 12px;&quot;&gt;&lt;span style=&quot;line-height: 115%; font-family: &amp;quot;Times New Roman&amp;quot;, serif;&quot; lang=&quot;FR&quot;&gt;gerer les connexions,l&#39;authentification et l&#39;autorisation a services de la plateforme&lt;br&gt;&lt;/span&gt;&lt;/font&gt;" style="ellipse;whiteSpace=wrap;html=1;" parent="1" vertex="1">
          <mxGeometry x="290" y="1560" width="180" height="70" as="geometry" />
        </mxCell>
        <mxCell id="aS9QhIr4S9a6gYHnRsQU-147" value="s&#39;authentifier" style="ellipse;whiteSpace=wrap;html=1;" parent="1" vertex="1">
          <mxGeometry x="610" y="1480" width="140" height="70" as="geometry" />
        </mxCell>
        <mxCell id="aS9QhIr4S9a6gYHnRsQU-148" value="&amp;lt;&amp;lt;include&amp;gt;&amp;gt;" style="endArrow=open;endSize=12;dashed=1;html=1;rounded=0;entryX=0.5;entryY=0;entryDx=0;entryDy=0;" parent="1" target="aS9QhIr4S9a6gYHnRsQU-147" edge="1">
          <mxGeometry width="160" relative="1" as="geometry">
            <mxPoint x="470" y="1349.5" as="sourcePoint" />
            <mxPoint x="630" y="1349.5" as="targetPoint" />
          </mxGeometry>
        </mxCell>
        <mxCell id="aS9QhIr4S9a6gYHnRsQU-149" value="&amp;lt;&amp;lt;include&amp;gt;&amp;gt;" style="endArrow=open;endSize=12;dashed=1;html=1;rounded=0;entryX=0.229;entryY=0.1;entryDx=0;entryDy=0;exitX=1;exitY=0.5;exitDx=0;exitDy=0;entryPerimeter=0;" parent="1" source="aS9QhIr4S9a6gYHnRsQU-144" target="aS9QhIr4S9a6gYHnRsQU-147" edge="1">
          <mxGeometry width="160" relative="1" as="geometry">
            <mxPoint x="480" y="1359.5" as="sourcePoint" />
            <mxPoint x="690" y="1490" as="targetPoint" />
          </mxGeometry>
        </mxCell>
        <mxCell id="aS9QhIr4S9a6gYHnRsQU-150" value="&amp;lt;&amp;lt;include&amp;gt;&amp;gt;" style="endArrow=open;endSize=12;dashed=1;html=1;rounded=0;entryX=0;entryY=0.5;entryDx=0;entryDy=0;exitX=1;exitY=0.5;exitDx=0;exitDy=0;" parent="1" source="aS9QhIr4S9a6gYHnRsQU-145" target="aS9QhIr4S9a6gYHnRsQU-147" edge="1">
          <mxGeometry width="160" relative="1" as="geometry">
            <mxPoint x="475" y="1455" as="sourcePoint" />
            <mxPoint x="652" y="1497" as="targetPoint" />
          </mxGeometry>
        </mxCell>
        <mxCell id="aS9QhIr4S9a6gYHnRsQU-151" value="&amp;lt;&amp;lt;include&amp;gt;&amp;gt;" style="endArrow=open;endSize=12;dashed=1;html=1;rounded=0;entryX=0;entryY=0.5;entryDx=0;entryDy=0;exitX=0.989;exitY=0.4;exitDx=0;exitDy=0;exitPerimeter=0;" parent="1" source="aS9QhIr4S9a6gYHnRsQU-146" edge="1">
          <mxGeometry width="160" relative="1" as="geometry">
            <mxPoint x="480" y="1570" as="sourcePoint" />
            <mxPoint x="620" y="1525" as="targetPoint" />
          </mxGeometry>
        </mxCell>
        <mxCell id="aS9QhIr4S9a6gYHnRsQU-154" value="" style="endArrow=none;html=1;rounded=0;" parent="1" edge="1">
          <mxGeometry width="50" height="50" relative="1" as="geometry">
            <mxPoint x="750" y="1520" as="sourcePoint" />
            <mxPoint x="820" y="1520" as="targetPoint" />
          </mxGeometry>
        </mxCell>
        <mxCell id="aS9QhIr4S9a6gYHnRsQU-155" value="" style="endArrow=none;html=1;rounded=0;entryX=0;entryY=0.5;entryDx=0;entryDy=0;" parent="1" edge="1" target="aS9QhIr4S9a6gYHnRsQU-143">
          <mxGeometry width="50" height="50" relative="1" as="geometry">
            <mxPoint x="140" y="1450" as="sourcePoint" />
            <mxPoint x="300" y="1350" as="targetPoint" />
          </mxGeometry>
        </mxCell>
        <mxCell id="aS9QhIr4S9a6gYHnRsQU-156" value="" style="endArrow=none;html=1;rounded=0;entryX=0;entryY=0.5;entryDx=0;entryDy=0;" parent="1" target="aS9QhIr4S9a6gYHnRsQU-144" edge="1">
          <mxGeometry width="50" height="50" relative="1" as="geometry">
            <mxPoint x="140" y="1460" as="sourcePoint" />
            <mxPoint x="310" y="1360" as="targetPoint" />
          </mxGeometry>
        </mxCell>
        <mxCell id="aS9QhIr4S9a6gYHnRsQU-157" value="" style="endArrow=none;html=1;rounded=0;entryX=0;entryY=0.5;entryDx=0;entryDy=0;" parent="1" target="aS9QhIr4S9a6gYHnRsQU-146" edge="1">
          <mxGeometry width="50" height="50" relative="1" as="geometry">
            <mxPoint x="140" y="1480" as="sourcePoint" />
            <mxPoint x="305" y="1455" as="targetPoint" />
          </mxGeometry>
        </mxCell>
        <mxCell id="aS9QhIr4S9a6gYHnRsQU-158" value="" style="endArrow=none;html=1;rounded=0;entryX=0;entryY=0.5;entryDx=0;entryDy=0;" parent="1" target="aS9QhIr4S9a6gYHnRsQU-145" edge="1">
          <mxGeometry width="50" height="50" relative="1" as="geometry">
            <mxPoint x="140" y="1470" as="sourcePoint" />
            <mxPoint x="315" y="1465" as="targetPoint" />
          </mxGeometry>
        </mxCell>
        <mxCell id="aS9QhIr4S9a6gYHnRsQU-159" value="&amp;lt;&amp;lt;include&amp;gt;&amp;gt;" style="endArrow=open;endSize=12;dashed=1;html=1;rounded=0;entryX=0.5;entryY=0;entryDx=0;entryDy=0;exitX=0.5;exitY=1;exitDx=0;exitDy=0;" parent="1" source="aS9QhIr4S9a6gYHnRsQU-144" target="aS9QhIr4S9a6gYHnRsQU-145" edge="1">
          <mxGeometry width="160" relative="1" as="geometry">
            <mxPoint x="475" y="1570" as="sourcePoint" />
            <mxPoint x="620" y="1525" as="targetPoint" />
          </mxGeometry>
        </mxCell>
        <mxCell id="aS9QhIr4S9a6gYHnRsQU-160" value="" style="whiteSpace=wrap;html=1;aspect=fixed;" parent="1" vertex="1">
          <mxGeometry x="110" y="2010" width="700" height="700" as="geometry" />
        </mxCell>
        <mxCell id="aS9QhIr4S9a6gYHnRsQU-161" value="&lt;b&gt;&lt;font style=&quot;font-size: 14px;&quot;&gt;gestion des projets&lt;br&gt;&lt;/font&gt;&lt;/b&gt;" style="text;html=1;align=center;verticalAlign=middle;whiteSpace=wrap;rounded=0;" parent="1" vertex="1">
          <mxGeometry x="315" y="2020" width="250" height="40" as="geometry" />
        </mxCell>
        <mxCell id="aS9QhIr4S9a6gYHnRsQU-176" value="creer un nouveau projet(piste, opportunite) " style="ellipse;whiteSpace=wrap;html=1;" parent="1" vertex="1">
          <mxGeometry x="340" y="2070" width="140" height="40" as="geometry" />
        </mxCell>
        <mxCell id="aS9QhIr4S9a6gYHnRsQU-177" value="modifier une cible ou opportunite" style="ellipse;whiteSpace=wrap;html=1;" parent="1" vertex="1">
          <mxGeometry x="320" y="2150" width="140" height="40" as="geometry" />
        </mxCell>
        <mxCell id="aS9QhIr4S9a6gYHnRsQU-178" value="gerer le statut lier a une piste" style="ellipse;whiteSpace=wrap;html=1;" parent="1" vertex="1">
          <mxGeometry x="300" y="2210" width="140" height="40" as="geometry" />
        </mxCell>
        <mxCell id="aS9QhIr4S9a6gYHnRsQU-184" value="s&#39;authentifier" style="ellipse;whiteSpace=wrap;html=1;" parent="1" vertex="1">
          <mxGeometry x="710" y="2410" width="100" height="50" as="geometry" />
        </mxCell>
        <mxCell id="aS9QhIr4S9a6gYHnRsQU-190" value="&amp;lt;&amp;lt;include&amp;gt;&amp;gt;" style="endArrow=open;endSize=12;dashed=1;html=1;rounded=0;entryX=0.007;entryY=0.4;entryDx=0;entryDy=0;exitX=1;exitY=0.5;exitDx=0;exitDy=0;entryPerimeter=0;" parent="1" source="yL7kgjwQmhdQYdYeQuJn-1" target="aS9QhIr4S9a6gYHnRsQU-184" edge="1">
          <mxGeometry width="160" relative="1" as="geometry">
            <mxPoint x="460.98" y="2385.99" as="sourcePoint" />
            <mxPoint x="760" y="2495" as="targetPoint" />
          </mxGeometry>
        </mxCell>
        <mxCell id="aS9QhIr4S9a6gYHnRsQU-191" value="&amp;lt;&amp;lt;include&amp;gt;&amp;gt;" style="endArrow=open;endSize=12;dashed=1;html=1;rounded=0;entryX=0;entryY=0;entryDx=0;entryDy=0;exitX=1;exitY=0.5;exitDx=0;exitDy=0;" parent="1" source="aS9QhIr4S9a6gYHnRsQU-178" target="aS9QhIr4S9a6gYHnRsQU-184" edge="1">
          <mxGeometry width="160" relative="1" as="geometry">
            <mxPoint x="610" y="2580" as="sourcePoint" />
            <mxPoint x="770" y="2505" as="targetPoint" />
          </mxGeometry>
        </mxCell>
        <mxCell id="aS9QhIr4S9a6gYHnRsQU-192" value="&amp;lt;&amp;lt;include&amp;gt;&amp;gt;" style="endArrow=open;endSize=12;dashed=1;html=1;rounded=0;entryX=0.5;entryY=0;entryDx=0;entryDy=0;exitX=0.971;exitY=0.686;exitDx=0;exitDy=0;exitPerimeter=0;" parent="1" source="aS9QhIr4S9a6gYHnRsQU-177" target="aS9QhIr4S9a6gYHnRsQU-184" edge="1">
          <mxGeometry width="160" relative="1" as="geometry">
            <mxPoint x="620" y="2590" as="sourcePoint" />
            <mxPoint x="780" y="2515" as="targetPoint" />
          </mxGeometry>
        </mxCell>
        <mxCell id="aS9QhIr4S9a6gYHnRsQU-193" value="&amp;lt;&amp;lt;include&amp;gt;&amp;gt;" style="endArrow=open;endSize=12;dashed=1;html=1;rounded=0;entryX=0.721;entryY=0.043;entryDx=0;entryDy=0;exitX=0.993;exitY=0.7;exitDx=0;exitDy=0;exitPerimeter=0;entryPerimeter=0;" parent="1" source="aS9QhIr4S9a6gYHnRsQU-176" target="aS9QhIr4S9a6gYHnRsQU-184" edge="1">
          <mxGeometry width="160" relative="1" as="geometry">
            <mxPoint x="630" y="2600" as="sourcePoint" />
            <mxPoint x="790" y="2525" as="targetPoint" />
          </mxGeometry>
        </mxCell>
        <mxCell id="aS9QhIr4S9a6gYHnRsQU-195" value="systeme" style="shape=umlActor;verticalLabelPosition=bottom;verticalAlign=top;html=1;" parent="1" vertex="1">
          <mxGeometry x="880" y="2400" width="30" height="60" as="geometry" />
        </mxCell>
        <mxCell id="aS9QhIr4S9a6gYHnRsQU-196" value="" style="endArrow=none;html=1;rounded=0;entryX=0.5;entryY=0.5;entryDx=0;entryDy=0;entryPerimeter=0;exitX=1.01;exitY=0.38;exitDx=0;exitDy=0;exitPerimeter=0;" parent="1" target="aS9QhIr4S9a6gYHnRsQU-195" edge="1" source="aS9QhIr4S9a6gYHnRsQU-184">
          <mxGeometry width="50" height="50" relative="1" as="geometry">
            <mxPoint x="850" y="2450" as="sourcePoint" />
            <mxPoint x="900" y="2400" as="targetPoint" />
          </mxGeometry>
        </mxCell>
        <mxCell id="aS9QhIr4S9a6gYHnRsQU-201" value="&lt;div&gt;user&lt;/div&gt;&lt;div&gt;(commerciaux)&lt;/div&gt;" style="shape=umlActor;verticalLabelPosition=bottom;verticalAlign=top;html=1;outlineConnect=0;" parent="1" vertex="1">
          <mxGeometry x="40" y="2290" width="30" height="60" as="geometry" />
        </mxCell>
        <mxCell id="aS9QhIr4S9a6gYHnRsQU-202" value="&lt;div&gt;admins&lt;br&gt;&lt;/div&gt;" style="shape=umlActor;verticalLabelPosition=bottom;verticalAlign=top;html=1;outlineConnect=0;" parent="1" vertex="1">
          <mxGeometry x="40" y="2550" width="30" height="60" as="geometry" />
        </mxCell>
        <mxCell id="aS9QhIr4S9a6gYHnRsQU-203" value="" style="endArrow=classic;html=1;rounded=0;" parent="1" edge="1">
          <mxGeometry width="50" height="50" relative="1" as="geometry">
            <mxPoint x="54.5" y="2550" as="sourcePoint" />
            <mxPoint x="54.5" y="2390" as="targetPoint" />
          </mxGeometry>
        </mxCell>
        <mxCell id="aS9QhIr4S9a6gYHnRsQU-204" value="" style="endArrow=none;html=1;rounded=0;entryX=0.029;entryY=0.629;entryDx=0;entryDy=0;entryPerimeter=0;" parent="1" target="aS9QhIr4S9a6gYHnRsQU-176" edge="1">
          <mxGeometry width="50" height="50" relative="1" as="geometry">
            <mxPoint x="90" y="2280" as="sourcePoint" />
            <mxPoint x="140" y="2230" as="targetPoint" />
          </mxGeometry>
        </mxCell>
        <mxCell id="aS9QhIr4S9a6gYHnRsQU-205" value="" style="endArrow=none;html=1;rounded=0;entryX=0;entryY=0.5;entryDx=0;entryDy=0;" parent="1" target="aS9QhIr4S9a6gYHnRsQU-177" edge="1">
          <mxGeometry width="50" height="50" relative="1" as="geometry">
            <mxPoint x="100" y="2290" as="sourcePoint" />
            <mxPoint x="354" y="2134" as="targetPoint" />
          </mxGeometry>
        </mxCell>
        <mxCell id="aS9QhIr4S9a6gYHnRsQU-206" value="" style="endArrow=none;html=1;rounded=0;entryX=0;entryY=0.5;entryDx=0;entryDy=0;" parent="1" target="aS9QhIr4S9a6gYHnRsQU-178" edge="1">
          <mxGeometry width="50" height="50" relative="1" as="geometry">
            <mxPoint x="100" y="2300" as="sourcePoint" />
            <mxPoint x="330" y="2205" as="targetPoint" />
          </mxGeometry>
        </mxCell>
        <mxCell id="aS9QhIr4S9a6gYHnRsQU-207" value="" style="endArrow=none;html=1;rounded=0;entryX=0;entryY=0.5;entryDx=0;entryDy=0;" parent="1" target="yL7kgjwQmhdQYdYeQuJn-1" edge="1">
          <mxGeometry width="50" height="50" relative="1" as="geometry">
            <mxPoint x="100" y="2310" as="sourcePoint" />
            <mxPoint x="320" y="2375" as="targetPoint" />
          </mxGeometry>
        </mxCell>
        <mxCell id="aS9QhIr4S9a6gYHnRsQU-213" value="" style="whiteSpace=wrap;html=1;aspect=fixed;" parent="1" vertex="1">
          <mxGeometry x="145" y="2820" width="500" height="500" as="geometry" />
        </mxCell>
        <mxCell id="aS9QhIr4S9a6gYHnRsQU-214" value="enregistrer de nouveaux contacts" style="ellipse;whiteSpace=wrap;html=1;" parent="1" vertex="1">
          <mxGeometry x="270" y="2870" width="160" height="40" as="geometry" />
        </mxCell>
        <mxCell id="aS9QhIr4S9a6gYHnRsQU-215" value="consulter les projets (piste,opportunite) qui sont lie a un contact" style="ellipse;whiteSpace=wrap;html=1;" parent="1" vertex="1">
          <mxGeometry x="260" y="2920" width="160" height="60" as="geometry" />
        </mxCell>
        <mxCell id="aS9QhIr4S9a6gYHnRsQU-216" value="Consulter les details d&#39;un contact" style="ellipse;whiteSpace=wrap;html=1;" parent="1" vertex="1">
          <mxGeometry x="260" y="3110" width="140" height="70" as="geometry" />
        </mxCell>
        <mxCell id="aS9QhIr4S9a6gYHnRsQU-217" value="&lt;div&gt;user&lt;/div&gt;&lt;div&gt;(commerciaux)&lt;/div&gt;" style="shape=umlActor;verticalLabelPosition=bottom;verticalAlign=top;html=1;outlineConnect=0;" parent="1" vertex="1">
          <mxGeometry x="90" y="2900" width="30" height="60" as="geometry" />
        </mxCell>
        <mxCell id="aS9QhIr4S9a6gYHnRsQU-218" value="&lt;div&gt;admins&lt;br&gt;&lt;/div&gt;" style="shape=umlActor;verticalLabelPosition=bottom;verticalAlign=top;html=1;outlineConnect=0;" parent="1" vertex="1">
          <mxGeometry x="90" y="3130" width="30" height="60" as="geometry" />
        </mxCell>
        <mxCell id="aS9QhIr4S9a6gYHnRsQU-219" value="" style="endArrow=classic;html=1;rounded=0;" parent="1" edge="1">
          <mxGeometry width="50" height="50" relative="1" as="geometry">
            <mxPoint x="105" y="3110" as="sourcePoint" />
            <mxPoint x="104.5" y="3010" as="targetPoint" />
          </mxGeometry>
        </mxCell>
        <mxCell id="aS9QhIr4S9a6gYHnRsQU-220" value="" style="endArrow=none;html=1;rounded=0;entryX=0;entryY=0.5;entryDx=0;entryDy=0;" parent="1" target="aS9QhIr4S9a6gYHnRsQU-214" edge="1">
          <mxGeometry width="50" height="50" relative="1" as="geometry">
            <mxPoint x="130" y="2930" as="sourcePoint" />
            <mxPoint x="180" y="2880" as="targetPoint" />
          </mxGeometry>
        </mxCell>
        <mxCell id="aS9QhIr4S9a6gYHnRsQU-221" value="" style="endArrow=none;html=1;rounded=0;entryX=0.036;entryY=0.386;entryDx=0;entryDy=0;entryPerimeter=0;" parent="1" target="aS9QhIr4S9a6gYHnRsQU-215" edge="1">
          <mxGeometry width="50" height="50" relative="1" as="geometry">
            <mxPoint x="140" y="2940" as="sourcePoint" />
            <mxPoint x="283" y="2924" as="targetPoint" />
          </mxGeometry>
        </mxCell>
        <mxCell id="aS9QhIr4S9a6gYHnRsQU-222" value="" style="endArrow=none;html=1;rounded=0;entryX=0.064;entryY=0.243;entryDx=0;entryDy=0;entryPerimeter=0;" parent="1" target="aS9QhIr4S9a6gYHnRsQU-216" edge="1">
          <mxGeometry width="50" height="50" relative="1" as="geometry">
            <mxPoint x="130" y="2950" as="sourcePoint" />
            <mxPoint x="295" y="3027" as="targetPoint" />
          </mxGeometry>
        </mxCell>
        <mxCell id="aS9QhIr4S9a6gYHnRsQU-223" value="s&#39;authentifier" style="ellipse;whiteSpace=wrap;html=1;" parent="1" vertex="1">
          <mxGeometry x="490" y="2990" width="140" height="70" as="geometry" />
        </mxCell>
        <mxCell id="aS9QhIr4S9a6gYHnRsQU-224" value="systeme" style="shape=umlActor;verticalLabelPosition=bottom;verticalAlign=top;html=1;" parent="1" vertex="1">
          <mxGeometry x="680" y="2990" width="30" height="60" as="geometry" />
        </mxCell>
        <mxCell id="aS9QhIr4S9a6gYHnRsQU-225" value="&amp;lt;&amp;lt;include&amp;gt;&amp;gt;" style="endArrow=open;endSize=12;dashed=1;html=1;rounded=0;exitX=0.913;exitY=0.786;exitDx=0;exitDy=0;exitPerimeter=0;entryX=0.271;entryY=0.029;entryDx=0;entryDy=0;entryPerimeter=0;" parent="1" source="aS9QhIr4S9a6gYHnRsQU-214" target="aS9QhIr4S9a6gYHnRsQU-223" edge="1">
          <mxGeometry width="160" relative="1" as="geometry">
            <mxPoint x="370" y="3000" as="sourcePoint" />
            <mxPoint x="520" y="2990" as="targetPoint" />
          </mxGeometry>
        </mxCell>
        <mxCell id="aS9QhIr4S9a6gYHnRsQU-226" value="&amp;lt;&amp;lt;include&amp;gt;&amp;gt;" style="endArrow=open;endSize=12;dashed=1;html=1;rounded=0;exitX=1.007;exitY=0.6;exitDx=0;exitDy=0;exitPerimeter=0;" parent="1" source="aS9QhIr4S9a6gYHnRsQU-215" target="aS9QhIr4S9a6gYHnRsQU-223" edge="1">
          <mxGeometry width="160" relative="1" as="geometry">
            <mxPoint x="426" y="2935" as="sourcePoint" />
            <mxPoint x="530" y="3000" as="targetPoint" />
          </mxGeometry>
        </mxCell>
        <mxCell id="aS9QhIr4S9a6gYHnRsQU-227" value="&amp;lt;&amp;lt;include&amp;gt;&amp;gt;" style="endArrow=open;endSize=12;dashed=1;html=1;rounded=0;exitX=0.979;exitY=0.386;exitDx=0;exitDy=0;exitPerimeter=0;entryX=0.386;entryY=0.971;entryDx=0;entryDy=0;entryPerimeter=0;" parent="1" source="aS9QhIr4S9a6gYHnRsQU-216" target="aS9QhIr4S9a6gYHnRsQU-223" edge="1">
          <mxGeometry width="160" relative="1" as="geometry">
            <mxPoint x="411" y="3022" as="sourcePoint" />
            <mxPoint x="475" y="3035" as="targetPoint" />
          </mxGeometry>
        </mxCell>
        <mxCell id="aS9QhIr4S9a6gYHnRsQU-228" value="" style="endArrow=none;html=1;rounded=0;exitX=1;exitY=0.5;exitDx=0;exitDy=0;" parent="1" source="aS9QhIr4S9a6gYHnRsQU-223" edge="1">
          <mxGeometry width="50" height="50" relative="1" as="geometry">
            <mxPoint x="630" y="3030" as="sourcePoint" />
            <mxPoint x="700" y="3025" as="targetPoint" />
          </mxGeometry>
        </mxCell>
        <mxCell id="aS9QhIr4S9a6gYHnRsQU-230" value="" style="whiteSpace=wrap;html=1;aspect=fixed;" parent="1" vertex="1">
          <mxGeometry x="182.5" y="3870" width="450" height="450" as="geometry" />
        </mxCell>
        <mxCell id="aS9QhIr4S9a6gYHnRsQU-231" value="Rappel sur les rendez-vous imminents" style="ellipse;whiteSpace=wrap;html=1;" parent="1" vertex="1">
          <mxGeometry x="347.5" y="3960" width="160" height="70" as="geometry" />
        </mxCell>
        <mxCell id="aS9QhIr4S9a6gYHnRsQU-232" value="Rappel sur une date imminente de closing d&#39;un projet" style="ellipse;whiteSpace=wrap;html=1;" parent="1" vertex="1">
          <mxGeometry x="352.5" y="4060" width="140" height="70" as="geometry" />
        </mxCell>
        <mxCell id="aS9QhIr4S9a6gYHnRsQU-233" value="Rappel sur la date de relance d&#39;une piste ou opportunite" style="ellipse;whiteSpace=wrap;html=1;" parent="1" vertex="1">
          <mxGeometry x="367.5" y="4170" width="140" height="70" as="geometry" />
        </mxCell>
        <mxCell id="aS9QhIr4S9a6gYHnRsQU-241" value="systeme" style="shape=umlActor;verticalLabelPosition=bottom;verticalAlign=top;html=1;" parent="1" vertex="1">
          <mxGeometry x="707.5" y="4060" width="30" height="60" as="geometry" />
        </mxCell>
        <mxCell id="aS9QhIr4S9a6gYHnRsQU-246" value="&lt;b&gt;&lt;font style=&quot;font-size: 14px;&quot;&gt;gestion des contacts&lt;br&gt;&lt;/font&gt;&lt;/b&gt;" style="text;html=1;align=center;verticalAlign=middle;whiteSpace=wrap;rounded=0;" parent="1" vertex="1">
          <mxGeometry x="275" y="2810" width="250" height="40" as="geometry" />
        </mxCell>
        <mxCell id="aS9QhIr4S9a6gYHnRsQU-247" value="&lt;b&gt;&lt;font style=&quot;font-size: 14px;&quot;&gt;gestion des notifications&lt;br&gt;&lt;/font&gt;&lt;/b&gt;" style="text;html=1;align=center;verticalAlign=middle;whiteSpace=wrap;rounded=0;" parent="1" vertex="1">
          <mxGeometry x="277.5" y="3880" width="250" height="40" as="geometry" />
        </mxCell>
        <mxCell id="aS9QhIr4S9a6gYHnRsQU-248" value="" style="endArrow=none;html=1;rounded=0;exitX=1;exitY=0.5;exitDx=0;exitDy=0;" parent="1" source="aS9QhIr4S9a6gYHnRsQU-231" edge="1">
          <mxGeometry width="50" height="50" relative="1" as="geometry">
            <mxPoint x="567.5" y="4020" as="sourcePoint" />
            <mxPoint x="707.5" y="4100" as="targetPoint" />
          </mxGeometry>
        </mxCell>
        <mxCell id="aS9QhIr4S9a6gYHnRsQU-250" value="" style="endArrow=none;html=1;rounded=0;exitX=1;exitY=0.5;exitDx=0;exitDy=0;" parent="1" source="aS9QhIr4S9a6gYHnRsQU-232" edge="1">
          <mxGeometry width="50" height="50" relative="1" as="geometry">
            <mxPoint x="517.5" y="4005" as="sourcePoint" />
            <mxPoint x="707.5" y="4100" as="targetPoint" />
          </mxGeometry>
        </mxCell>
        <mxCell id="aS9QhIr4S9a6gYHnRsQU-251" value="" style="endArrow=none;html=1;rounded=0;exitX=0.993;exitY=0.4;exitDx=0;exitDy=0;exitPerimeter=0;" parent="1" source="aS9QhIr4S9a6gYHnRsQU-233" edge="1" target="aS9QhIr4S9a6gYHnRsQU-241">
          <mxGeometry width="50" height="50" relative="1" as="geometry">
            <mxPoint x="502.5" y="4105" as="sourcePoint" />
            <mxPoint x="697.5" y="4110" as="targetPoint" />
          </mxGeometry>
        </mxCell>
        <mxCell id="aS9QhIr4S9a6gYHnRsQU-285" value="" style="whiteSpace=wrap;html=1;aspect=fixed;" parent="1" vertex="1">
          <mxGeometry x="135" y="4360" width="575" height="575" as="geometry" />
        </mxCell>
        <mxCell id="aS9QhIr4S9a6gYHnRsQU-286" value="consulter le tableau de bord du commercial" style="ellipse;whiteSpace=wrap;html=1;" parent="1" vertex="1">
          <mxGeometry x="250" y="4420" width="160" height="70" as="geometry" />
        </mxCell>
        <mxCell id="aS9QhIr4S9a6gYHnRsQU-287" value="consulter le profil de chaque client" style="ellipse;whiteSpace=wrap;html=1;" parent="1" vertex="1">
          <mxGeometry x="335" y="4510" width="140" height="70" as="geometry" />
        </mxCell>
        <mxCell id="aS9QhIr4S9a6gYHnRsQU-288" value="&lt;div&gt;user&lt;/div&gt;&lt;div&gt;(commerciaux)&lt;/div&gt;" style="shape=umlActor;verticalLabelPosition=bottom;verticalAlign=top;html=1;outlineConnect=0;" parent="1" vertex="1">
          <mxGeometry x="70" y="4460" width="30" height="60" as="geometry" />
        </mxCell>
        <mxCell id="aS9QhIr4S9a6gYHnRsQU-289" value="&lt;div&gt;admins principale&lt;br&gt;&lt;/div&gt;" style="shape=umlActor;verticalLabelPosition=bottom;verticalAlign=top;html=1;outlineConnect=0;" parent="1" vertex="1">
          <mxGeometry x="70" y="4690" width="30" height="60" as="geometry" />
        </mxCell>
        <mxCell id="aS9QhIr4S9a6gYHnRsQU-290" value="" style="endArrow=classic;html=1;rounded=0;" parent="1" edge="1">
          <mxGeometry width="50" height="50" relative="1" as="geometry">
            <mxPoint x="85" y="4670" as="sourcePoint" />
            <mxPoint x="84.5" y="4570" as="targetPoint" />
          </mxGeometry>
        </mxCell>
        <mxCell id="aS9QhIr4S9a6gYHnRsQU-291" value="" style="endArrow=none;html=1;rounded=0;" parent="1" target="aS9QhIr4S9a6gYHnRsQU-286" edge="1">
          <mxGeometry width="50" height="50" relative="1" as="geometry">
            <mxPoint x="110" y="4490" as="sourcePoint" />
            <mxPoint x="160" y="4440" as="targetPoint" />
          </mxGeometry>
        </mxCell>
        <mxCell id="aS9QhIr4S9a6gYHnRsQU-292" value="" style="endArrow=none;html=1;rounded=0;entryX=0.064;entryY=0.243;entryDx=0;entryDy=0;entryPerimeter=0;" parent="1" target="aS9QhIr4S9a6gYHnRsQU-287" edge="1">
          <mxGeometry width="50" height="50" relative="1" as="geometry">
            <mxPoint x="110" y="4510" as="sourcePoint" />
            <mxPoint x="275" y="4587" as="targetPoint" />
          </mxGeometry>
        </mxCell>
        <mxCell id="aS9QhIr4S9a6gYHnRsQU-293" value="s&#39;authentifier" style="ellipse;whiteSpace=wrap;html=1;" parent="1" vertex="1">
          <mxGeometry x="560" y="4545" width="140" height="70" as="geometry" />
        </mxCell>
        <mxCell id="aS9QhIr4S9a6gYHnRsQU-294" value="systeme" style="shape=umlActor;verticalLabelPosition=bottom;verticalAlign=top;html=1;" parent="1" vertex="1">
          <mxGeometry x="740" y="4550" width="30" height="60" as="geometry" />
        </mxCell>
        <mxCell id="aS9QhIr4S9a6gYHnRsQU-295" value="&amp;lt;&amp;lt;include&amp;gt;&amp;gt;" style="endArrow=open;endSize=12;dashed=1;html=1;rounded=0;exitX=0.913;exitY=0.786;exitDx=0;exitDy=0;exitPerimeter=0;entryX=0.271;entryY=0.029;entryDx=0;entryDy=0;entryPerimeter=0;" parent="1" source="aS9QhIr4S9a6gYHnRsQU-286" target="aS9QhIr4S9a6gYHnRsQU-293" edge="1">
          <mxGeometry width="160" relative="1" as="geometry">
            <mxPoint x="350" y="4560" as="sourcePoint" />
            <mxPoint x="500" y="4550" as="targetPoint" />
          </mxGeometry>
        </mxCell>
        <mxCell id="aS9QhIr4S9a6gYHnRsQU-296" value="&amp;lt;&amp;lt;include&amp;gt;&amp;gt;" style="endArrow=open;endSize=12;dashed=1;html=1;rounded=0;exitX=0.979;exitY=0.386;exitDx=0;exitDy=0;exitPerimeter=0;entryX=0;entryY=0.5;entryDx=0;entryDy=0;" parent="1" source="aS9QhIr4S9a6gYHnRsQU-287" target="aS9QhIr4S9a6gYHnRsQU-293" edge="1">
          <mxGeometry width="160" relative="1" as="geometry">
            <mxPoint x="391" y="4582" as="sourcePoint" />
            <mxPoint x="455" y="4595" as="targetPoint" />
          </mxGeometry>
        </mxCell>
        <mxCell id="aS9QhIr4S9a6gYHnRsQU-297" value="" style="endArrow=none;html=1;rounded=0;exitX=1;exitY=0.5;exitDx=0;exitDy=0;entryX=0.5;entryY=0.5;entryDx=0;entryDy=0;entryPerimeter=0;" parent="1" source="aS9QhIr4S9a6gYHnRsQU-293" target="aS9QhIr4S9a6gYHnRsQU-294" edge="1">
          <mxGeometry width="50" height="50" relative="1" as="geometry">
            <mxPoint x="610" y="4590" as="sourcePoint" />
            <mxPoint x="680" y="4585" as="targetPoint" />
          </mxGeometry>
        </mxCell>
        <mxCell id="aS9QhIr4S9a6gYHnRsQU-298" value="&lt;b&gt;&lt;font style=&quot;font-size: 14px;&quot;&gt;Statistique et rapport via tableau de bord&lt;br&gt;&lt;/font&gt;&lt;/b&gt;" style="text;html=1;align=center;verticalAlign=middle;whiteSpace=wrap;rounded=0;" parent="1" vertex="1">
          <mxGeometry x="255" y="4370" width="250" height="40" as="geometry" />
        </mxCell>
        <mxCell id="aS9QhIr4S9a6gYHnRsQU-303" value="consulter le tableau de bord de l&#39;administrateur de l&#39;organisation" style="ellipse;whiteSpace=wrap;html=1;" parent="1" vertex="1">
          <mxGeometry x="550" y="4800" width="140" height="70" as="geometry" />
        </mxCell>
        <mxCell id="aS9QhIr4S9a6gYHnRsQU-304" value="consulter le tableau de bord de l&#39;administrateur systeme" style="ellipse;whiteSpace=wrap;html=1;" parent="1" vertex="1">
          <mxGeometry x="285" y="4750" width="140" height="70" as="geometry" />
        </mxCell>
        <mxCell id="aS9QhIr4S9a6gYHnRsQU-305" value="&lt;div&gt;admins d&#39;organistion &lt;br&gt;&lt;/div&gt;" style="shape=umlActor;verticalLabelPosition=bottom;verticalAlign=top;html=1;outlineConnect=0;" parent="1" vertex="1">
          <mxGeometry x="70" y="4830" width="30" height="60" as="geometry" />
        </mxCell>
        <mxCell id="aS9QhIr4S9a6gYHnRsQU-306" value="" style="endArrow=classic;html=1;rounded=0;entryX=0.5;entryY=0;entryDx=0;entryDy=0;entryPerimeter=0;" parent="1" target="aS9QhIr4S9a6gYHnRsQU-305" edge="1">
          <mxGeometry width="50" height="50" relative="1" as="geometry">
            <mxPoint x="85" y="4770" as="sourcePoint" />
            <mxPoint x="94.5" y="4580" as="targetPoint" />
          </mxGeometry>
        </mxCell>
        <mxCell id="aS9QhIr4S9a6gYHnRsQU-307" value="" style="endArrow=none;html=1;rounded=0;exitX=1;exitY=0.3333333333333333;exitDx=0;exitDy=0;exitPerimeter=0;entryX=-0.021;entryY=0.414;entryDx=0;entryDy=0;entryPerimeter=0;" parent="1" source="aS9QhIr4S9a6gYHnRsQU-289" target="aS9QhIr4S9a6gYHnRsQU-304" edge="1">
          <mxGeometry width="50" height="50" relative="1" as="geometry">
            <mxPoint x="400" y="4690" as="sourcePoint" />
            <mxPoint x="450" y="4640" as="targetPoint" />
          </mxGeometry>
        </mxCell>
        <mxCell id="aS9QhIr4S9a6gYHnRsQU-308" value="" style="endArrow=none;html=1;rounded=0;exitX=1;exitY=0.3333333333333333;exitDx=0;exitDy=0;exitPerimeter=0;entryX=0;entryY=0.5;entryDx=0;entryDy=0;" parent="1" source="aS9QhIr4S9a6gYHnRsQU-305" target="aS9QhIr4S9a6gYHnRsQU-303" edge="1">
          <mxGeometry width="50" height="50" relative="1" as="geometry">
            <mxPoint x="110" y="4720" as="sourcePoint" />
            <mxPoint x="377" y="4669" as="targetPoint" />
          </mxGeometry>
        </mxCell>
        <mxCell id="aS9QhIr4S9a6gYHnRsQU-309" value="&amp;lt;&amp;lt;include&amp;gt;&amp;gt;" style="endArrow=open;endSize=12;dashed=1;html=1;rounded=0;exitX=0.936;exitY=0.171;exitDx=0;exitDy=0;exitPerimeter=0;entryX=0.079;entryY=0.743;entryDx=0;entryDy=0;entryPerimeter=0;" parent="1" source="aS9QhIr4S9a6gYHnRsQU-304" edge="1">
          <mxGeometry width="160" relative="1" as="geometry">
            <mxPoint x="397" y="4557" as="sourcePoint" />
            <mxPoint x="581" y="4607" as="targetPoint" />
          </mxGeometry>
        </mxCell>
        <mxCell id="aS9QhIr4S9a6gYHnRsQU-310" value="&amp;lt;&amp;lt;include&amp;gt;&amp;gt;" style="endArrow=open;endSize=12;dashed=1;html=1;rounded=0;exitX=0.807;exitY=0.043;exitDx=0;exitDy=0;exitPerimeter=0;entryX=0.386;entryY=1.014;entryDx=0;entryDy=0;entryPerimeter=0;" parent="1" source="aS9QhIr4S9a6gYHnRsQU-303" target="aS9QhIr4S9a6gYHnRsQU-293" edge="1">
          <mxGeometry width="160" relative="1" as="geometry">
            <mxPoint x="566" y="4732" as="sourcePoint" />
            <mxPoint x="591" y="4617" as="targetPoint" />
          </mxGeometry>
        </mxCell>
        <mxCell id="aS9QhIr4S9a6gYHnRsQU-311" value="Exportation d&#39;un fichier de rapport de donnees" style="ellipse;whiteSpace=wrap;html=1;" parent="1" vertex="1">
          <mxGeometry x="250" y="4620" width="140" height="70" as="geometry" />
        </mxCell>
        <mxCell id="aS9QhIr4S9a6gYHnRsQU-312" value="Extends" style="endArrow=block;endSize=16;endFill=0;html=1;rounded=0;exitX=0.629;exitY=1;exitDx=0;exitDy=0;exitPerimeter=0;entryX=0.421;entryY=0.043;entryDx=0;entryDy=0;entryPerimeter=0;" parent="1" source="aS9QhIr4S9a6gYHnRsQU-311" target="aS9QhIr4S9a6gYHnRsQU-304" edge="1">
          <mxGeometry width="160" relative="1" as="geometry">
            <mxPoint x="350" y="4670" as="sourcePoint" />
            <mxPoint x="510" y="4670" as="targetPoint" />
          </mxGeometry>
        </mxCell>
        <mxCell id="aS9QhIr4S9a6gYHnRsQU-313" value="Extends" style="endArrow=block;endSize=16;endFill=0;html=1;rounded=0;exitX=1;exitY=0.714;exitDx=0;exitDy=0;exitPerimeter=0;entryX=0;entryY=0;entryDx=0;entryDy=0;" parent="1" source="aS9QhIr4S9a6gYHnRsQU-311" target="aS9QhIr4S9a6gYHnRsQU-303" edge="1">
          <mxGeometry width="160" relative="1" as="geometry">
            <mxPoint x="401" y="4674" as="sourcePoint" />
            <mxPoint x="440" y="4750" as="targetPoint" />
          </mxGeometry>
        </mxCell>
        <mxCell id="aS9QhIr4S9a6gYHnRsQU-314" value="Extends" style="endArrow=block;endSize=16;endFill=0;html=1;rounded=0;exitX=0.407;exitY=-0.029;exitDx=0;exitDy=0;exitPerimeter=0;entryX=0;entryY=1;entryDx=0;entryDy=0;" parent="1" source="aS9QhIr4S9a6gYHnRsQU-311" target="aS9QhIr4S9a6gYHnRsQU-287" edge="1">
          <mxGeometry width="160" relative="1" as="geometry">
            <mxPoint x="402" y="4658" as="sourcePoint" />
            <mxPoint x="645" y="4770" as="targetPoint" />
          </mxGeometry>
        </mxCell>
        <mxCell id="aS9QhIr4S9a6gYHnRsQU-315" value="Extends" style="endArrow=block;endSize=16;endFill=0;html=1;rounded=0;exitX=0;exitY=0;exitDx=0;exitDy=0;entryX=0.252;entryY=0.857;entryDx=0;entryDy=0;entryPerimeter=0;" parent="1" source="aS9QhIr4S9a6gYHnRsQU-311" target="aS9QhIr4S9a6gYHnRsQU-286" edge="1">
          <mxGeometry width="160" relative="1" as="geometry">
            <mxPoint x="317" y="4628" as="sourcePoint" />
            <mxPoint x="432" y="4608" as="targetPoint" />
          </mxGeometry>
        </mxCell>
        <mxCell id="aS9QhIr4S9a6gYHnRsQU-316" value="&amp;lt;&amp;lt;include&amp;gt;&amp;gt;" style="endArrow=open;endSize=12;dashed=1;html=1;rounded=0;entryX=1;entryY=1;entryDx=0;entryDy=0;exitX=0.929;exitY=0.286;exitDx=0;exitDy=0;exitPerimeter=0;" parent="1" source="aS9QhIr4S9a6gYHnRsQU-177" target="aS9QhIr4S9a6gYHnRsQU-176" edge="1">
          <mxGeometry width="160" relative="1" as="geometry">
            <mxPoint x="489" y="2129" as="sourcePoint" />
            <mxPoint x="821" y="2423" as="targetPoint" />
          </mxGeometry>
        </mxCell>
        <mxCell id="yL7kgjwQmhdQYdYeQuJn-1" value="gerer le statut lier a une opportunite" style="ellipse;whiteSpace=wrap;html=1;" vertex="1" parent="1">
          <mxGeometry x="300" y="2270" width="140" height="40" as="geometry" />
        </mxCell>
        <mxCell id="yL7kgjwQmhdQYdYeQuJn-3" value="gestion de l&#39;etat d&#39;une piste" style="ellipse;whiteSpace=wrap;html=1;" vertex="1" parent="1">
          <mxGeometry x="315" y="2320" width="140" height="40" as="geometry" />
        </mxCell>
        <mxCell id="yL7kgjwQmhdQYdYeQuJn-5" value="gestion de l&#39;etat d&#39;une opportunite" style="ellipse;whiteSpace=wrap;html=1;" vertex="1" parent="1">
          <mxGeometry x="315" y="2380" width="140" height="40" as="geometry" />
        </mxCell>
        <mxCell id="yL7kgjwQmhdQYdYeQuJn-6" value="" style="endArrow=none;html=1;rounded=0;entryX=0;entryY=0.5;entryDx=0;entryDy=0;" edge="1" parent="1" target="yL7kgjwQmhdQYdYeQuJn-3">
          <mxGeometry width="50" height="50" relative="1" as="geometry">
            <mxPoint x="110" y="2320" as="sourcePoint" />
            <mxPoint x="310" y="2300" as="targetPoint" />
          </mxGeometry>
        </mxCell>
        <mxCell id="yL7kgjwQmhdQYdYeQuJn-7" value="" style="endArrow=none;html=1;rounded=0;entryX=0;entryY=0.5;entryDx=0;entryDy=0;" edge="1" parent="1" target="yL7kgjwQmhdQYdYeQuJn-5">
          <mxGeometry width="50" height="50" relative="1" as="geometry">
            <mxPoint x="120" y="2330" as="sourcePoint" />
            <mxPoint x="320" y="2310" as="targetPoint" />
          </mxGeometry>
        </mxCell>
        <mxCell id="yL7kgjwQmhdQYdYeQuJn-8" value="&amp;lt;&amp;lt;include&amp;gt;&amp;gt;" style="endArrow=open;endSize=12;dashed=1;html=1;rounded=0;entryX=0;entryY=0.5;entryDx=0;entryDy=0;exitX=1;exitY=0.5;exitDx=0;exitDy=0;" edge="1" parent="1" source="yL7kgjwQmhdQYdYeQuJn-3" target="aS9QhIr4S9a6gYHnRsQU-184">
          <mxGeometry width="160" relative="1" as="geometry">
            <mxPoint x="450" y="2300" as="sourcePoint" />
            <mxPoint x="721" y="2448" as="targetPoint" />
          </mxGeometry>
        </mxCell>
        <mxCell id="yL7kgjwQmhdQYdYeQuJn-9" value="&amp;lt;&amp;lt;include&amp;gt;&amp;gt;" style="endArrow=open;endSize=12;dashed=1;html=1;rounded=0;entryX=0.064;entryY=0.771;entryDx=0;entryDy=0;exitX=0.467;exitY=0.547;exitDx=0;exitDy=0;entryPerimeter=0;exitPerimeter=0;" edge="1" parent="1" source="aS9QhIr4S9a6gYHnRsQU-160" target="aS9QhIr4S9a6gYHnRsQU-184">
          <mxGeometry width="160" relative="1" as="geometry">
            <mxPoint x="460" y="2310" as="sourcePoint" />
            <mxPoint x="731" y="2458" as="targetPoint" />
          </mxGeometry>
        </mxCell>
        <mxCell id="yL7kgjwQmhdQYdYeQuJn-10" value="consulter les points focals(particulier,) qui son lie a une entreprise" style="ellipse;whiteSpace=wrap;html=1;" vertex="1" parent="1">
          <mxGeometry x="255" y="2985" width="155" height="55" as="geometry" />
        </mxCell>
        <mxCell id="yL7kgjwQmhdQYdYeQuJn-11" value="" style="endArrow=none;html=1;rounded=0;entryX=0;entryY=0.5;entryDx=0;entryDy=0;" edge="1" parent="1" target="yL7kgjwQmhdQYdYeQuJn-10">
          <mxGeometry width="50" height="50" relative="1" as="geometry">
            <mxPoint x="150" y="2950" as="sourcePoint" />
            <mxPoint x="275" y="2953" as="targetPoint" />
          </mxGeometry>
        </mxCell>
        <mxCell id="yL7kgjwQmhdQYdYeQuJn-12" value="&amp;lt;&amp;lt;include&amp;gt;&amp;gt;" style="endArrow=open;endSize=12;dashed=1;html=1;rounded=0;exitX=1;exitY=0.5;exitDx=0;exitDy=0;entryX=0;entryY=0.5;entryDx=0;entryDy=0;" edge="1" parent="1" source="yL7kgjwQmhdQYdYeQuJn-10">
          <mxGeometry width="160" relative="1" as="geometry">
            <mxPoint x="411" y="2966" as="sourcePoint" />
            <mxPoint x="500" y="3035" as="targetPoint" />
          </mxGeometry>
        </mxCell>
        <mxCell id="yL7kgjwQmhdQYdYeQuJn-14" value="&amp;lt;&amp;lt;include&amp;gt;&amp;gt;" style="endArrow=open;endSize=12;dashed=1;html=1;rounded=0;exitX=1;exitY=0.5;exitDx=0;exitDy=0;entryX=0;entryY=0.5;entryDx=0;entryDy=0;" edge="1" parent="1">
          <mxGeometry width="160" relative="1" as="geometry">
            <mxPoint x="415" y="3070" as="sourcePoint" />
            <mxPoint x="510" y="3045" as="targetPoint" />
          </mxGeometry>
        </mxCell>
        <mxCell id="yL7kgjwQmhdQYdYeQuJn-15" value="" style="endArrow=none;html=1;rounded=0;entryX=0;entryY=0.5;entryDx=0;entryDy=0;exitX=0;exitY=0.25;exitDx=0;exitDy=0;" edge="1" parent="1" source="aS9QhIr4S9a6gYHnRsQU-213">
          <mxGeometry width="50" height="50" relative="1" as="geometry">
            <mxPoint x="160" y="2960" as="sourcePoint" />
            <mxPoint x="260" y="3070" as="targetPoint" />
          </mxGeometry>
        </mxCell>
        <mxCell id="yL7kgjwQmhdQYdYeQuJn-27" value="" style="whiteSpace=wrap;html=1;aspect=fixed;" vertex="1" parent="1">
          <mxGeometry x="145" y="3340" width="520" height="520" as="geometry" />
        </mxCell>
        <mxCell id="yL7kgjwQmhdQYdYeQuJn-28" value="&amp;nbsp;supprimer, modifier un rendez-vous" style="ellipse;whiteSpace=wrap;html=1;" vertex="1" parent="1">
          <mxGeometry x="250" y="3460" width="160" height="40" as="geometry" />
        </mxCell>
        <mxCell id="yL7kgjwQmhdQYdYeQuJn-29" value="gestion du statut d&#39;un rendez-vous" style="ellipse;whiteSpace=wrap;html=1;" vertex="1" parent="1">
          <mxGeometry x="250" y="3570" width="140" height="40" as="geometry" />
        </mxCell>
        <mxCell id="yL7kgjwQmhdQYdYeQuJn-30" value="&lt;div&gt;user&lt;/div&gt;&lt;div&gt;(commerciaux)&lt;/div&gt;" style="shape=umlActor;verticalLabelPosition=bottom;verticalAlign=top;html=1;outlineConnect=0;" vertex="1" parent="1">
          <mxGeometry x="70" y="3440" width="30" height="60" as="geometry" />
        </mxCell>
        <mxCell id="yL7kgjwQmhdQYdYeQuJn-31" value="&lt;div&gt;admins&lt;br&gt;&lt;/div&gt;" style="shape=umlActor;verticalLabelPosition=bottom;verticalAlign=top;html=1;outlineConnect=0;" vertex="1" parent="1">
          <mxGeometry x="70" y="3670" width="30" height="60" as="geometry" />
        </mxCell>
        <mxCell id="yL7kgjwQmhdQYdYeQuJn-32" value="" style="endArrow=classic;html=1;rounded=0;" edge="1" parent="1">
          <mxGeometry width="50" height="50" relative="1" as="geometry">
            <mxPoint x="85" y="3650" as="sourcePoint" />
            <mxPoint x="84.5" y="3550" as="targetPoint" />
          </mxGeometry>
        </mxCell>
        <mxCell id="yL7kgjwQmhdQYdYeQuJn-33" value="" style="endArrow=none;html=1;rounded=0;entryX=0;entryY=0.5;entryDx=0;entryDy=0;" edge="1" parent="1" target="yL7kgjwQmhdQYdYeQuJn-28">
          <mxGeometry width="50" height="50" relative="1" as="geometry">
            <mxPoint x="110" y="3470" as="sourcePoint" />
            <mxPoint x="160" y="3420" as="targetPoint" />
          </mxGeometry>
        </mxCell>
        <mxCell id="yL7kgjwQmhdQYdYeQuJn-34" value="" style="endArrow=none;html=1;rounded=0;entryX=0;entryY=0.5;entryDx=0;entryDy=0;" edge="1" parent="1" target="yL7kgjwQmhdQYdYeQuJn-29">
          <mxGeometry width="50" height="50" relative="1" as="geometry">
            <mxPoint x="110" y="3470" as="sourcePoint" />
            <mxPoint x="275" y="3567" as="targetPoint" />
          </mxGeometry>
        </mxCell>
        <mxCell id="yL7kgjwQmhdQYdYeQuJn-35" value="s&#39;authentifier" style="ellipse;whiteSpace=wrap;html=1;" vertex="1" parent="1">
          <mxGeometry x="555" y="3560" width="105" height="60" as="geometry" />
        </mxCell>
        <mxCell id="yL7kgjwQmhdQYdYeQuJn-36" value="systeme" style="shape=umlActor;verticalLabelPosition=bottom;verticalAlign=top;html=1;" vertex="1" parent="1">
          <mxGeometry x="690" y="3560" width="30" height="60" as="geometry" />
        </mxCell>
        <mxCell id="yL7kgjwQmhdQYdYeQuJn-37" value="&amp;lt;&amp;lt;include&amp;gt;&amp;gt;" style="endArrow=open;endSize=12;dashed=1;html=1;rounded=0;exitX=0.979;exitY=0.386;exitDx=0;exitDy=0;exitPerimeter=0;entryX=0.079;entryY=0.743;entryDx=0;entryDy=0;entryPerimeter=0;" edge="1" parent="1" source="yL7kgjwQmhdQYdYeQuJn-29" target="yL7kgjwQmhdQYdYeQuJn-35">
          <mxGeometry width="160" relative="1" as="geometry">
            <mxPoint x="391" y="3562" as="sourcePoint" />
            <mxPoint x="455" y="3575" as="targetPoint" />
          </mxGeometry>
        </mxCell>
        <mxCell id="yL7kgjwQmhdQYdYeQuJn-38" value="" style="endArrow=none;html=1;rounded=0;exitX=1;exitY=0.5;exitDx=0;exitDy=0;entryX=0.5;entryY=0.5;entryDx=0;entryDy=0;entryPerimeter=0;" edge="1" parent="1" source="yL7kgjwQmhdQYdYeQuJn-35" target="yL7kgjwQmhdQYdYeQuJn-36">
          <mxGeometry width="50" height="50" relative="1" as="geometry">
            <mxPoint x="610" y="3570" as="sourcePoint" />
            <mxPoint x="680" y="3565" as="targetPoint" />
          </mxGeometry>
        </mxCell>
        <mxCell id="yL7kgjwQmhdQYdYeQuJn-39" value="&lt;b&gt;&lt;font style=&quot;font-size: 14px;&quot;&gt;gestion des rendez-vous&lt;br&gt;&lt;/font&gt;&lt;/b&gt;" style="text;html=1;align=center;verticalAlign=middle;whiteSpace=wrap;rounded=0;" vertex="1" parent="1">
          <mxGeometry x="255" y="3350" width="250" height="40" as="geometry" />
        </mxCell>
        <mxCell id="yL7kgjwQmhdQYdYeQuJn-40" value="Creer un rendez-vous" style="ellipse;whiteSpace=wrap;html=1;" vertex="1" parent="1">
          <mxGeometry x="270" y="3410" width="140" height="40" as="geometry" />
        </mxCell>
        <mxCell id="yL7kgjwQmhdQYdYeQuJn-41" value="" style="endArrow=none;html=1;rounded=0;entryX=0;entryY=0.5;entryDx=0;entryDy=0;" edge="1" parent="1" target="yL7kgjwQmhdQYdYeQuJn-40">
          <mxGeometry width="50" height="50" relative="1" as="geometry">
            <mxPoint x="110" y="3470" as="sourcePoint" />
            <mxPoint x="260" y="3445" as="targetPoint" />
          </mxGeometry>
        </mxCell>
        <mxCell id="yL7kgjwQmhdQYdYeQuJn-42" value="&amp;lt;&amp;lt;include&amp;gt;&amp;gt;" style="endArrow=open;endSize=12;dashed=1;html=1;rounded=0;exitX=1;exitY=0.5;exitDx=0;exitDy=0;entryX=0.295;entryY=0.083;entryDx=0;entryDy=0;entryPerimeter=0;" edge="1" parent="1" source="yL7kgjwQmhdQYdYeQuJn-40" target="yL7kgjwQmhdQYdYeQuJn-35">
          <mxGeometry width="160" relative="1" as="geometry">
            <mxPoint x="406" y="3459" as="sourcePoint" />
            <mxPoint x="518" y="3542" as="targetPoint" />
          </mxGeometry>
        </mxCell>
        <mxCell id="yL7kgjwQmhdQYdYeQuJn-43" value="afficher les details sur un rendez-vous" style="ellipse;whiteSpace=wrap;html=1;" vertex="1" parent="1">
          <mxGeometry x="250" y="3510" width="160" height="40" as="geometry" />
        </mxCell>
        <mxCell id="yL7kgjwQmhdQYdYeQuJn-44" value="" style="endArrow=none;html=1;rounded=0;entryX=0;entryY=0.5;entryDx=0;entryDy=0;" edge="1" parent="1" target="yL7kgjwQmhdQYdYeQuJn-43">
          <mxGeometry width="50" height="50" relative="1" as="geometry">
            <mxPoint x="110" y="3470" as="sourcePoint" />
            <mxPoint x="260" y="3490" as="targetPoint" />
          </mxGeometry>
        </mxCell>
        <mxCell id="yL7kgjwQmhdQYdYeQuJn-45" value="&amp;lt;&amp;lt;include&amp;gt;&amp;gt;" style="endArrow=open;endSize=12;dashed=1;html=1;rounded=0;exitX=1;exitY=0.5;exitDx=0;exitDy=0;entryX=0;entryY=0.5;entryDx=0;entryDy=0;" edge="1" parent="1" source="yL7kgjwQmhdQYdYeQuJn-43" target="yL7kgjwQmhdQYdYeQuJn-35">
          <mxGeometry width="160" relative="1" as="geometry">
            <mxPoint x="397" y="3595" as="sourcePoint" />
            <mxPoint x="573" y="3615" as="targetPoint" />
          </mxGeometry>
        </mxCell>
        <mxCell id="yL7kgjwQmhdQYdYeQuJn-46" value="&amp;lt;&amp;lt;include&amp;gt;&amp;gt;" style="endArrow=open;endSize=12;dashed=1;html=1;rounded=0;exitX=1;exitY=0.675;exitDx=0;exitDy=0;exitPerimeter=0;" edge="1" parent="1" source="yL7kgjwQmhdQYdYeQuJn-28" target="yL7kgjwQmhdQYdYeQuJn-35">
          <mxGeometry width="160" relative="1" as="geometry">
            <mxPoint x="407" y="3605" as="sourcePoint" />
            <mxPoint x="583" y="3625" as="targetPoint" />
          </mxGeometry>
        </mxCell>
        <mxCell id="yL7kgjwQmhdQYdYeQuJn-47" value="afficher la liste des pistes" style="ellipse;whiteSpace=wrap;html=1;" vertex="1" parent="1">
          <mxGeometry x="325" y="2440" width="140" height="40" as="geometry" />
        </mxCell>
        <mxCell id="yL7kgjwQmhdQYdYeQuJn-49" value="afficher la liste des opportunites" style="ellipse;whiteSpace=wrap;html=1;" vertex="1" parent="1">
          <mxGeometry x="330" y="2490" width="140" height="40" as="geometry" />
        </mxCell>
        <mxCell id="yL7kgjwQmhdQYdYeQuJn-50" value="afficher la liste des projets" style="ellipse;whiteSpace=wrap;html=1;" vertex="1" parent="1">
          <mxGeometry x="325" y="2540" width="140" height="40" as="geometry" />
        </mxCell>
        <mxCell id="yL7kgjwQmhdQYdYeQuJn-51" value="" style="endArrow=none;html=1;rounded=0;entryX=0;entryY=0.5;entryDx=0;entryDy=0;" edge="1" parent="1">
          <mxGeometry width="50" height="50" relative="1" as="geometry">
            <mxPoint x="130" y="2340" as="sourcePoint" />
            <mxPoint x="325" y="2410" as="targetPoint" />
          </mxGeometry>
        </mxCell>
        <mxCell id="yL7kgjwQmhdQYdYeQuJn-52" value="afficher le nombre de cotation lie a un contact" style="ellipse;whiteSpace=wrap;html=1;" vertex="1" parent="1">
          <mxGeometry x="260" y="3050" width="140" height="50" as="geometry" />
        </mxCell>
        <mxCell id="yL7kgjwQmhdQYdYeQuJn-53" value="programmer l&#39;envoie d&#39;un mail" style="ellipse;whiteSpace=wrap;html=1;" vertex="1" parent="1">
          <mxGeometry x="262.5" y="3630" width="140" height="40" as="geometry" />
        </mxCell>
        <mxCell id="yL7kgjwQmhdQYdYeQuJn-54" value="programmer un appel" style="ellipse;whiteSpace=wrap;html=1;" vertex="1" parent="1">
          <mxGeometry x="275" y="3690" width="140" height="40" as="geometry" />
        </mxCell>
        <mxCell id="yL7kgjwQmhdQYdYeQuJn-55" value="" style="endArrow=none;html=1;rounded=0;entryX=0;entryY=0.5;entryDx=0;entryDy=0;" edge="1" parent="1" target="yL7kgjwQmhdQYdYeQuJn-53">
          <mxGeometry width="50" height="50" relative="1" as="geometry">
            <mxPoint x="120" y="3480" as="sourcePoint" />
            <mxPoint x="260" y="3600" as="targetPoint" />
          </mxGeometry>
        </mxCell>
        <mxCell id="yL7kgjwQmhdQYdYeQuJn-56" value="" style="endArrow=none;html=1;rounded=0;entryX=0;entryY=0.5;entryDx=0;entryDy=0;" edge="1" parent="1" target="yL7kgjwQmhdQYdYeQuJn-54">
          <mxGeometry width="50" height="50" relative="1" as="geometry">
            <mxPoint x="130" y="3490" as="sourcePoint" />
            <mxPoint x="270" y="3610" as="targetPoint" />
          </mxGeometry>
        </mxCell>
        <mxCell id="yL7kgjwQmhdQYdYeQuJn-57" value="&amp;lt;&amp;lt;include&amp;gt;&amp;gt;" style="endArrow=open;endSize=12;dashed=1;html=1;rounded=0;exitX=1;exitY=0.5;exitDx=0;exitDy=0;entryX=0.19;entryY=0.983;entryDx=0;entryDy=0;entryPerimeter=0;" edge="1" parent="1" source="yL7kgjwQmhdQYdYeQuJn-53" target="yL7kgjwQmhdQYdYeQuJn-35">
          <mxGeometry width="160" relative="1" as="geometry">
            <mxPoint x="397" y="3595" as="sourcePoint" />
            <mxPoint x="573" y="3615" as="targetPoint" />
          </mxGeometry>
        </mxCell>
        <mxCell id="yL7kgjwQmhdQYdYeQuJn-58" value="&amp;lt;&amp;lt;include&amp;gt;&amp;gt;" style="endArrow=open;endSize=12;dashed=1;html=1;rounded=0;exitX=1;exitY=0.5;exitDx=0;exitDy=0;entryX=0.41;entryY=1;entryDx=0;entryDy=0;entryPerimeter=0;" edge="1" parent="1" source="yL7kgjwQmhdQYdYeQuJn-54" target="yL7kgjwQmhdQYdYeQuJn-35">
          <mxGeometry width="160" relative="1" as="geometry">
            <mxPoint x="407" y="3605" as="sourcePoint" />
            <mxPoint x="583" y="3625" as="targetPoint" />
          </mxGeometry>
        </mxCell>
      </root>
    </mxGraphModel>
  </diagram>
</mxfile>
